HIERARCHY
ROOT Hips
{
  OFFSET 5.84602e-005 68.8428 3.50346
  CHANNELS 6 Xposition Yposition Zposition Zrotation Xrotation Yrotation
  JOINT Spine
  {
    OFFSET 0 8.597 -4.6522
    CHANNELS 3 Zrotation Xrotation Yrotation
    JOINT Spine1
    {
      OFFSET 0 7.8454 0.4098
      CHANNELS 3 Zrotation Xrotation Yrotation
      JOINT Spine2
      {
        OFFSET 0 9.7078 -2.1609
        CHANNELS 3 Zrotation Xrotation Yrotation
        JOINT Neck
        {
          OFFSET 0 21.8761 -0.4549
          CHANNELS 3 Zrotation Xrotation Yrotation
          JOINT Head
          {
            OFFSET 0 12.3537 3.3602
            CHANNELS 3 Zrotation Xrotation Yrotation
            End Site
            {
              OFFSET 0.0001 18.9506 0.5657
            }
          }
        }
        JOINT LeftShoulder
        {
          OFFSET 2.2086 21.1115 7.2329
          CHANNELS 3 Zrotation Xrotation Yrotation
          JOINT LeftArm
          {
            OFFSET 13.1193 3.0282 -4.8998
            CHANNELS 3 Zrotation Xrotation Yrotation
            JOINT LeftForeArm
            {
              OFFSET 27.4081 -0.0973053 -0.2375
              CHANNELS 3 Zrotation Xrotation Yrotation
              JOINT LeftHand
              {
                OFFSET 22.8641 0.0662994 -0.1369
                CHANNELS 3 Zrotation Xrotation Yrotation
                JOINT LeftHandIndex1
                {
                  OFFSET 8.8614 0.775009 2.4612
                  CHANNELS 3 Zrotation Xrotation Yrotation
                  JOINT LeftHandIndex2
                  {
                    OFFSET 3.3146 -0.808304 0.5841
                    CHANNELS 3 Zrotation Xrotation Yrotation
                    JOINT LeftHandIndex3
                    {
                      OFFSET 2.2628 -0.552002 0.3989
                      CHANNELS 3 Zrotation Xrotation Yrotation
                      End Site
                      {
                        OFFSET 1.6102 -0.4807 0.2612
                      }
                    }
                  }
                }
                JOINT LeftHandMiddle1
                {
                  OFFSET 8.9937 0.895004 0.2143
                  CHANNELS 3 Zrotation Xrotation Yrotation
                  JOINT LeftHandMiddle2
                  {
                    OFFSET 4.0984 0.0113983 -0.0242
                    CHANNELS 3 Zrotation Xrotation Yrotation
                    JOINT LeftHandMiddle3
                    {
                      OFFSET 2.2716 0.00689697 -0.0138001
                      CHANNELS 3 Zrotation Xrotation Yrotation
                      End Site
                      {
                        OFFSET 2.0404 -0.1441 0.0027
                      }
                    }
                  }
                }
                JOINT LeftHandRing1
                {
                  OFFSET 8.5234 0.597198 -2.0164
                  CHANNELS 3 Zrotation Xrotation Yrotation
                  JOINT LeftHandRing2
                  {
                    OFFSET 3.7188 -0.188293 -0.2328
                    CHANNELS 3 Zrotation Xrotation Yrotation
                    JOINT LeftHandRing3
                    {
                      OFFSET 2.1191 -0.106598 -0.1332
                      CHANNELS 3 Zrotation Xrotation Yrotation
                      End Site
                      {
                        OFFSET 1.8737 -0.2304 -0.0886
                      }
                    }
                  }
                }
                JOINT LeftHandPinky1
                {
                  OFFSET 7.9094 -0.601089 -3.4825
                  CHANNELS 3 Zrotation Xrotation Yrotation
                  JOINT LeftHandPinky2
                  {
                    OFFSET 2.2874 -0.477005 -0.6314
                    CHANNELS 3 Zrotation Xrotation Yrotation
                    JOINT LeftHandPinky3
                    {
                      OFFSET 1.6774 -0.349396 -0.4633
                      CHANNELS 3 Zrotation Xrotation Yrotation
                      End Site
                      {
                        OFFSET 1.4888 -0.4091 -0.3416
                      }
                    }
                  }
                }
                JOINT LeftHandThumb1
                {
                  OFFSET 1.833 -1.3875 1.3896
                  CHANNELS 3 Zrotation Xrotation Yrotation
                  JOINT LeftHandThumb2
                  {
                    OFFSET 3.4129 -1.121 2.5732
                    CHANNELS 3 Zrotation Xrotation Yrotation
                    JOINT LeftHandThumb3
                    {
                      OFFSET 2.2474 -0.804199 1.6192
                      CHANNELS 3 Zrotation Xrotation Yrotation
                      End Site
                      {
                        OFFSET 1.6527 -0.5689 1.1317
                      }
                    }
                  }
                }
              }
            }
          }
        }
        JOINT RightShoulder
        {
          OFFSET -2.2086 21.1115 7.2329
          CHANNELS 3 Zrotation Xrotation Yrotation
          JOINT RightArm
          {
            OFFSET -13.1216 3.0287 -4.9007
            CHANNELS 3 Zrotation Xrotation Yrotation
            JOINT RightForeArm
            {
              OFFSET -27.4081 -0.0973053 -0.2375
              CHANNELS 3 Zrotation Xrotation Yrotation
              JOINT RightHand
              {
                OFFSET -22.8641 0.0664063 -0.1369
                CHANNELS 3 Zrotation Xrotation Yrotation
                JOINT RightHandIndex1
                {
                  OFFSET -8.8614 0.774994 2.4612
                  CHANNELS 3 Zrotation Xrotation Yrotation
                  JOINT RightHandIndex2
                  {
                    OFFSET -3.3146 -0.808304 0.5841
                    CHANNELS 3 Zrotation Xrotation Yrotation
                    JOINT RightHandIndex3
                    {
                      OFFSET -2.2628 -0.552002 0.3989
                      CHANNELS 3 Zrotation Xrotation Yrotation
                      End Site
                      {
                        OFFSET -1.6102 -0.4807 0.2612
                      }
                    }
                  }
                }
                JOINT RightHandMiddle1
                {
                  OFFSET -8.9937 0.894989 0.2143
                  CHANNELS 3 Zrotation Xrotation Yrotation
                  JOINT RightHandMiddle2
                  {
                    OFFSET -4.0984 0.0113983 -0.0242
                    CHANNELS 3 Zrotation Xrotation Yrotation
                    JOINT RightHandMiddle3
                    {
                      OFFSET -2.2716 0.00691223 -0.0138001
                      CHANNELS 3 Zrotation Xrotation Yrotation
                      End Site
                      {
                        OFFSET -2.0404 -0.1441 0.0027
                      }
                    }
                  }
                }
                JOINT RightHandRing1
                {
                  OFFSET -8.5234 0.597198 -2.0164
                  CHANNELS 3 Zrotation Xrotation Yrotation
                  JOINT RightHandRing2
                  {
                    OFFSET -3.7188 -0.188309 -0.2328
                    CHANNELS 3 Zrotation Xrotation Yrotation
                    JOINT RightHandRing3
                    {
                      OFFSET -2.1191 -0.106598 -0.1332
                      CHANNELS 3 Zrotation Xrotation Yrotation
                      End Site
                      {
                        OFFSET -1.8737 -0.2304 -0.0886
                      }
                    }
                  }
                }
                JOINT RightHandPinky1
                {
                  OFFSET -7.9094 -0.601105 -3.4825
                  CHANNELS 3 Zrotation Xrotation Yrotation
                  JOINT RightHandPinky2
                  {
                    OFFSET -2.2874 -0.477005 -0.6314
                    CHANNELS 3 Zrotation Xrotation Yrotation
                    JOINT RightHandPinky3
                    {
                      OFFSET -1.6774 -0.349396 -0.4633
                      CHANNELS 3 Zrotation Xrotation Yrotation
                      End Site
                      {
                        OFFSET -1.4888 -0.4091 -0.3416
                      }
                    }
                  }
                }
                JOINT RightHandThumb1
                {
                  OFFSET -1.833 -1.38751 1.3896
                  CHANNELS 3 Zrotation Xrotation Yrotation
                  JOINT RightHandThumb2
                  {
                    OFFSET -3.41299 -1.12099 2.5732
                    CHANNELS 3 Zrotation Xrotation Yrotation
                    JOINT RightHandThumb3
                    {
                      OFFSET -2.24741 -0.804108 1.6192
                      CHANNELS 3 Zrotation Xrotation Yrotation
                      End Site
                      {
                        OFFSET -1.6527 -0.5689 1.1317
                      }
                    }
                  }
                }
              }
            }
          }
        }
      }
    }
  }
  JOINT RightUpLeg
  {
    OFFSET -9.1966 3.8861 -0.7581
    CHANNELS 3 Zrotation Xrotation Yrotation
    JOINT RightLeg
    {
      OFFSET -0.7359 -41.0265 0
      CHANNELS 3 Zrotation Xrotation Yrotation
      JOINT RightFoot
      {
        OFFSET 0 -40.2855 0
        CHANNELS 3 Zrotation Xrotation Yrotation
        JOINT RightToeBase
        {
          OFFSET 0 -5.6122 11.7359
          CHANNELS 3 Zrotation Xrotation Yrotation
          End Site
          {
            OFFSET 0 0 7.8731
          }
        }
      }
    }
  }
  JOINT LeftUpLeg
  {
    OFFSET 9.1965 3.8864 -0.7581
    CHANNELS 3 Zrotation Xrotation Yrotation
    JOINT LeftLeg
    {
      OFFSET 0.7359 -41.0268 0
      CHANNELS 3 Zrotation Xrotation Yrotation
      JOINT LeftFoot
      {
        OFFSET 0 -40.2855 0
        CHANNELS 3 Zrotation Xrotation Yrotation
        JOINT LeftToeBase
        {
          OFFSET 0 -5.6122 11.7359
          CHANNELS 3 Zrotation Xrotation Yrotation
          End Site
          {
            OFFSET 0 0 7.8731
          }
        }
      }
    }
  }
}
MOTION
Frames:	4
Frame Time:	0.0333333
5.84602e-005 68.8428 3.50346 0 0 -0 0 0 -0 0 0 -0 0 0 -0 0 0 -0 0 0 -0 0 0 -0 0 0 -0 0 0 -0 0 0 -0 0 0 -0 0 0 -0 0 0 -0 0 0 -0 -0.0146107 -8.87603e-005 -2.63497e-007 2.99804e-018 -2.42657e-020 -1.42182e-022 0 0 -0 -0.0187562 -0.001176 5.858e-005 5.06224e-018 3.88251e-019 1.21329e-020 0 0 -0 -0.012269 -0.00324817 0.000675346 -1.74678e-018 3.88251e-019 -0 0 0 -0 0 0 -0 0 0 -0 0 0 -0 0 0 -0 0 0 -0 0 0 -0 0 0 -0 0 0 -0 0 0 -0 0 0 -0 0.0149955 -9.10982e-005 2.64101e-007 -9.69331e-018 1.21329e-020 -4.7394e-023 0 0 -0 0.0189956 -0.00119102 -5.96516e-005 -5.41541e-019 0 2.42657e-020 0 0 -0 0.0122698 -0.00324857 -0.000673756 -2.00796e-019 0 -1.94126e-019 0 0 -0 0 0 -0 0 0 -0 3.39842 1.33031 -0.0637918 -5.65207e-008 0.834868 -0.000436188 -3.39935 -2.16518 -0.0642563 -8.89002e-024 -1.18485e-023 -1.48106e-024 -3.39844 1.35642 0.0640283 -3.18788e-007 0.782166 -0.000588827 3.39931 -2.13858 0.0634662 1.1399e-023 0 -0 
21.5632 -1.4418 11.1642 -36.9626 -84.9984 -151.849 -7.16755 0.709585 3.52524 -14.366 0.972673 7.11185 -14.3659 0.972673 7.11184 -0.722643 -1.99511 -0.0213383 -10.8813 -26.664 -2.67802 -22.8699 1.96149 -13.2005 -14.2581 3.13528 -21.3664 -26.5672 13.6317 -32.4459 -7.00125 -23.0031 -0.00157312 -3.22696e-006 4.37495e-007 9.14973e-008 4.10525e-006 1.76315e-006 8.33788e-007 -2.9342e-006 1.17105e-006 3.99926e-007 -3.22696e-006 4.37495e-007 9.14973e-008 -0.0146156 -8.72612e-005 1.10179e-006 -2.93404e-006 1.171e-006 4.00078e-007 -3.22696e-006 4.37495e-007 9.14973e-008 -0.0187465 -0.00117561 5.85329e-005 -2.93399e-006 1.17099e-006 4.00147e-007 -3.22696e-006 4.37495e-007 9.14973e-008 -0.0122964 -0.0032558 0.000675941 -2.93405e-006 1.17105e-006 4.00128e-007 -3.22696e-006 4.37495e-007 9.14973e-008 4.10525e-006 1.76315e-006 8.33788e-007 -2.9342e-006 1.17105e-006 3.99926e-007 1.2015 -0.554415 14.1024 15.492 -1.77412 48.3647 -3.4995 -11.7428 45.8819 1.34942 -2.02852 -4.75038 3.86217e-032 3.18055e-015 -6.95746e-016 5.66424e-008 -1.62276e-008 -6.00283e-007 1.64231e-007 -1.04496e-008 -1.3591e-007 3.86217e-032 3.18055e-015 -6.95746e-016 0.0150123 -8.57296e-005 -3.91499e-007 1.64231e-007 -1.04674e-008 -1.35909e-007 3.86217e-032 3.18055e-015 -6.95746e-016 0.0189958 -0.00119408 -5.99472e-005 1.6423e-007 -1.04721e-008 -1.3591e-007 3.86217e-032 3.18055e-015 -6.95746e-016 0.01231 -0.00325812 -0.000678391 1.64228e-007 -1.04633e-008 -1.35914e-007 3.86217e-032 3.18055e-015 -6.95746e-016 5.66424e-008 -1.62276e-008 -6.00283e-007 1.64231e-007 -1.04496e-008 -1.3591e-007 -6.5043 9.41107 -1.04351 -17.6713 56.9835 10.6135 -7.26963 10.7834 -0.398436 -1.35174e-014 -6.36111e-015 6.36111e-015 22.726 -0.529595 41.1797 -68.6335 35.0596 65.6093 8.47686 10.5945 0.886112 -7.95139e-016 -6.36111e-015 3.18055e-015 
21.5632 -1.4418 11.1642 -36.9626 -84.9984 -151.849 -7.16755 0.709585 3.52524 -14.366 0.972673 7.11185 -14.3659 0.972673 7.11184 -0.816686 -1.38011 0.422181 -10.8813 -26.664 -2.67801 -22.8699 1.96149 -13.2005 -14.3845 2.66112 -21.0604 -26.5672 13.6317 -32.4459 -7.61651 -23.078 -0.45476 -3.80845e-006 -1.03265e-006 -5.05055e-007 2.64129e-006 -1.90043e-006 -7.28331e-007 -3.80845e-006 -1.03265e-006 -5.05055e-007 -3.80845e-006 -1.03265e-006 -5.05055e-007 -0.0146252 -8.83217e-005 -2.13363e-006 -3.80826e-006 -1.03258e-006 -5.05184e-007 -3.80845e-006 -1.03265e-006 -5.05055e-007 -0.0187507 -0.001175 5.96719e-005 -3.80821e-006 -1.03255e-006 -5.05186e-007 -3.80845e-006 -1.03265e-006 -5.05055e-007 -0.0122563 -0.00324671 0.000674704 -3.80831e-006 -1.03253e-006 -5.05067e-007 -3.80845e-006 -1.03265e-006 -5.05055e-007 2.64129e-006 -1.90043e-006 -7.28331e-007 -3.80845e-006 -1.03265e-006 -5.05055e-007 1.2015 -0.554415 14.1024 15.492 -1.77412 48.3647 -3.4995 -11.7428 45.8819 1.34942 -2.02852 -4.75038 3.86217e-032 3.18055e-015 -6.95746e-016 5.66424e-008 -1.62276e-008 -6.00283e-007 1.64231e-007 -1.04496e-008 -1.3591e-007 3.86217e-032 3.18055e-015 -6.95746e-016 0.0150123 -8.57296e-005 -3.91499e-007 1.64231e-007 -1.04674e-008 -1.35909e-007 3.86217e-032 3.18055e-015 -6.95746e-016 0.0189958 -0.00119408 -5.99472e-005 1.6423e-007 -1.04721e-008 -1.3591e-007 3.86217e-032 3.18055e-015 -6.95746e-016 0.01231 -0.00325812 -0.000678391 1.64228e-007 -1.04633e-008 -1.35914e-007 3.86217e-032 3.18055e-015 -6.95746e-016 5.66424e-008 -1.62276e-008 -6.00283e-007 1.64231e-007 -1.04496e-008 -1.3591e-007 -6.5043 9.41107 -1.04351 -17.6713 56.9835 10.6135 -7.26963 10.7834 -0.398436 -1.35174e-014 -6.36111e-015 6.36111e-015 22.726 -0.529595 41.1797 -68.6335 35.0596 65.6093 8.47686 10.5945 0.886112 -7.95139e-016 -6.36111e-015 3.18055e-015 
21.5632 -1.4418 11.1642 -36.9626 -84.9984 -151.849 -7.16755 0.709585 3.52524 -14.366 0.972673 7.11185 -14.3659 0.972673 7.11184 -0.915735 -0.764028 0.86804 -10.8813 -26.6639 -2.67802 -22.8699 1.96149 -13.2005 -14.5085 2.18576 -20.7552 -26.5672 13.6317 -32.4459 -8.23349 -23.1485 -0.909606 -3.18055e-015 0 -6.36111e-015 -2.49191e-006 -6.98967e-008 3.37196e-006 7.95139e-015 6.36111e-015 -3.18055e-015 -3.18055e-015 0 -6.36111e-015 -0.0146068 -9.03066e-005 -6.4906e-006 3.09801e-006 7.26184e-007 -3.80117e-006 -3.18055e-015 0 -6.36111e-015 -0.0187509 -0.00117359 5.65983e-005 1.11319e-014 -6.36111e-015 3.18055e-015 -3.18055e-015 0 -6.36111e-015 -0.012263 -0.00324475 0.000677723 -4.77083e-015 -3.18055e-015 3.18055e-015 -3.18055e-015 0 -6.36111e-015 -2.49191e-006 -6.98967e-008 3.37196e-006 7.95139e-015 6.36111e-015 -3.18055e-015 1.2015 -0.554415 14.1024 15.492 -1.77412 48.3647 -3.4995 -11.7428 45.8819 1.34942 -2.02852 -4.75038 3.86217e-032 3.18055e-015 -6.95746e-016 5.66424e-008 -1.62276e-008 -6.00283e-007 1.64231e-007 -1.04496e-008 -1.3591e-007 3.86217e-032 3.18055e-015 -6.95746e-016 0.0150123 -8.57296e-005 -3.91499e-007 1.64231e-007 -1.04674e-008 -1.35909e-007 3.86217e-032 3.18055e-015 -6.95746e-016 0.0189958 -0.00119408 -5.99472e-005 1.6423e-007 -1.04721e-008 -1.3591e-007 3.86217e-032 3.18055e-015 -6.95746e-016 0.01231 -0.00325812 -0.000678391 1.64228e-007 -1.04633e-008 -1.35914e-007 3.86217e-032 3.18055e-015 -6.95746e-016 5.66424e-008 -1.62276e-008 -6.00283e-007 1.64231e-007 -1.04496e-008 -1.3591e-007 -6.5043 9.41107 -1.04351 -17.6713 56.9835 10.6135 -7.26963 10.7834 -0.398436 -1.35174e-014 -6.36111e-015 6.36111e-015 22.726 -0.529595 41.1797 -68.6335 35.0596 65.6093 8.47686 10.5945 0.886112 -7.95139e-016 -6.36111e-015 3.18055e-015 
